<?xml version="1.0" encoding="UTF-8" standalone="no"?>
<!-- Created with Inkscape (http://www.inkscape.org/) -->

<svg
   version="1.1"
   id="svg2"
   width="1733.3333"
   height="1200"
   viewBox="0 0 1733.3333 1200"
   sodipodi:docname="mando.svg"
   inkscape:version="1.2.2 (732a01da63, 2022-12-09)"
   xmlns:inkscape="http://www.inkscape.org/namespaces/inkscape"
   xmlns:sodipodi="http://sodipodi.sourceforge.net/DTD/sodipodi-0.dtd"
   xmlns="http://www.w3.org/2000/svg"
   xmlns:svg="http://www.w3.org/2000/svg">
  <defs
     id="defs6">
    <clipPath
       clipPathUnits="userSpaceOnUse"
       id="clipPath18">
      <path
         d="M 0,900 H 1300 V 0 H 0 Z"
         id="path16" />
    </clipPath>
  </defs>
  <sodipodi:namedview
     id="namedview4"
     pagecolor="#000000"
     bordercolor="#111111"
     borderopacity="1"
     inkscape:showpageshadow="0"
     inkscape:pageopacity="0"
     inkscape:pagecheckerboard="1"
     inkscape:deskcolor="#d1d1d1"
     showgrid="false"
     inkscape:zoom="0.6975"
     inkscape:cx="865.94982"
     inkscape:cy="600.71685"
     inkscape:window-width="1920"
     inkscape:window-height="1017"
     inkscape:window-x="1912"
     inkscape:window-y="-8"
     inkscape:window-maximized="1"
     inkscape:current-layer="g10">
    <inkscape:page
       x="0"
       y="0"
       id="page8"
       width="1733.3333"
       height="1200" />
  </sodipodi:namedview>
  <g
     id="g10"
     inkscape:groupmode="layer"
     inkscape:label="Page 1"
     transform="matrix(1.3333333,0,0,-1.3333333,0,1200)">
    <g
       id="g12">
      <g
         id="g14"
         clip-path="url(#clipPath18)">
        <g
           id="g20"
           transform="translate(387,742.1603)">
          <path
             d="m 0,0 v 17.369 c 0,0 -28.281,11.579 -65.914,11.579 C -103.546,28.948 -131,10.339 -131,10.339 V -4.963 Z"
             style="fill:#000201;fill-opacity:1;fill-rule:nonzero;stroke:none"
             id="path22" />
        </g>
        <g
           id="g24"
           transform="translate(908,742.1603)">
          <path
             d="m 0,0 v 17.369 c 0,0 27.781,11.579 65.414,11.579 C 103.046,28.948 130,10.339 130,10.339 V -4.963 Z"
             style="fill:#000201;fill-opacity:1;fill-rule:nonzero;stroke:none"
             id="path26" />
        </g>
        <g
           id="g28"
           transform="translate(1153.4216,219.8528)">
          <path
             d="M 0,0 C 8.89,6.773 16.623,24.96 22.955,45.98 20.293,95.533 9.329,161.1 -5.557,244.27 -34.2,404.304 -87.4,495.466 -106.008,517.177 c -18.609,21.709 -46.452,17.329 -63.2,21.05 -16.748,3.722 -76.156,-13.103 -92.904,-18.686 -16.748,-5.582 -66.713,-0.155 -66.713,-0.155 l -177.372,-1.748 -177.582,1.748 c 0,0 -50.089,-5.427 -66.836,0.155 -16.748,5.583 -76.218,22.408 -92.966,18.686 -16.748,-3.721 -44.622,0.659 -63.23,-21.05 -18.609,-21.711 -71.824,-112.873 -100.468,-272.907 -14.748,-82.403 -25.652,-147.533 -28.443,-196.921 6.407,-21.596 14.281,-40.429 23.363,-47.349 26.054,-19.85 78.161,-40.941 143.914,-39.7 19.918,0.375 37.313,2.806 51.911,6.004 21.852,64.023 34.193,139.389 51.185,149.585 18.609,11.165 17.71,13.447 23.448,12.206 5.738,-1.241 28.535,-19.85 56.139,-20.625 27.605,-0.776 49.316,3.412 60.792,10.7 11.476,7.289 18.531,16.904 21.167,17.059 1.361,0.08 35.381,0.078 67.381,0.056 v -0.056 c 0,0 12.773,0.016 29.971,0.032 17.232,-0.016 30.029,-0.032 30.029,-0.032 v 0.057 c 32,0.021 66.019,0.023 67.378,-0.057 2.636,-0.155 9.684,-9.77 21.159,-17.059 11.476,-7.288 33.19,-11.476 60.794,-10.7 27.604,0.775 50.402,19.384 56.14,20.625 5.738,1.241 4.841,-1.041 23.449,-12.206 16.983,-10.19 29.32,-85.472 51.148,-149.471 14.705,-3.255 32.283,-5.738 52.44,-6.118 C -78.16,-40.941 -26.053,-19.85 0,0"
             style="fill:#24282b;fill-opacity:1;fill-rule:nonzero;stroke:none"
             id="path30" />
        </g>
        <g
           id="g32"
           transform="translate(141.0631,219.8528)">
          <path
             d="m 0,0 c -9.082,6.92 -16.956,25.753 -23.363,47.349 -2.63,-46.529 1.942,-79.087 17.288,-98.946 31.634,-40.939 48.012,-51.256 81.882,-57.128 23.163,-4.016 87.463,-9.856 113.515,57.135 2.263,5.817 4.425,11.805 6.503,17.894 -14.599,-3.198 -31.993,-5.629 -51.911,-6.004 C 78.16,-40.941 26.053,-19.85 0,0"
             style="fill:#383d43;fill-opacity:1;fill-rule:nonzero;stroke:none"
             id="path34" />
        </g>
        <g
           id="g36"
           transform="translate(1077.1262,111.1276)">
          <path
             d="m 0,0 c 28.874,5.039 50.252,16.189 81.886,57.128 15.195,19.663 19.825,51.781 17.365,97.577 -6.333,-21.02 -14.066,-39.207 -22.956,-45.98 -26.053,-19.85 -78.16,-40.941 -143.913,-39.7 -20.157,0.38 -37.735,2.863 -52.44,6.118 2.09,-6.128 4.265,-12.154 6.541,-18.008 C -87.465,-9.856 -16.498,-2.879 0,0"
             style="fill:#383d43;fill-opacity:1;fill-rule:nonzero;stroke:none"
             id="path38" />
        </g>
        <g
           id="g40"
           transform="translate(436.7505,592.0434)">
          <path
             d="m 0,0 c 0,-69.204 -56.101,-125.304 -125.304,-125.304 -69.204,0 -125.304,56.1 -125.304,125.304 0,69.204 56.1,125.304 125.304,125.304 C -56.101,125.304 0,69.204 0,0"
             style="fill:#000000;fill-opacity:1;fill-rule:nonzero;stroke:none"
             id="path42" />
        </g>
        <g
           id="g44"
           transform="translate(1107.9343,592.0434)">
          <path
             d="m 0,0 c 0,-69.204 -56.101,-125.304 -125.304,-125.304 -69.204,0 -125.304,56.1 -125.304,125.304 0,69.204 56.1,125.304 125.304,125.304 C -56.101,125.304 0,69.204 0,0"
             style="fill:#000000;fill-opacity:1;fill-rule:nonzero;stroke:none"
             id="path46" />
        </g>
        <g
           id="g48"
           transform="translate(575.5983,433.8624)">
          <path
             d="m 0,0 c 0,-55.386 -44.899,-100.285 -100.285,-100.285 -55.385,0 -100.284,44.899 -100.284,100.285 0,15.054 3.317,29.333 9.26,42.147 l 51.286,49.956 c 12.185,5.265 25.621,8.182 39.738,8.182 C -44.899,100.285 0,55.386 0,0"
             style="fill:#32353a;fill-opacity:1;fill-rule:nonzero;stroke:none"
             id="path50" />
        </g>
        <g
           id="g52"
           transform="translate(544.1689,442.7536)">
          <path
             d="m 0,0 c 0,-36.772 -29.809,-66.581 -66.581,-66.581 -36.771,0 -66.58,29.809 -66.58,66.581 0,36.772 29.809,66.581 66.58,66.581 C -29.809,66.581 0,36.772 0,0"
             style="fill:#020202;fill-opacity:1;fill-rule:nonzero;stroke:none"
             id="path54" />
        </g>
        <g
           id="g56"
           transform="translate(539.2064,442.7746)">
          <path
             d="m 0,0 c 0,-34.031 -27.587,-61.618 -61.618,-61.618 -34.031,0 -61.618,27.587 -61.618,61.618 0,34.031 27.587,61.618 61.618,61.618 C -27.587,61.618 0,34.031 0,0"
             style="fill:#393e42;fill-opacity:1;fill-rule:nonzero;stroke:none"
             id="path58" />
        </g>
        <g
           id="g60"
           transform="translate(519.5976,442.7746)">
          <path
             d="m 0,0 c 0,-23.201 -18.808,-42.009 -42.009,-42.009 -23.202,0 -42.01,18.808 -42.01,42.009 0,23.201 18.808,42.009 42.01,42.009 C -18.808,42.009 0,23.201 0,0"
             style="fill:#32353a;fill-opacity:1;fill-rule:nonzero;stroke:none"
             id="path62" />
        </g>
        <g
           id="g64"
           transform="translate(718.4782,433.8624)">
          <path
             d="m 0,0 c 0,-55.386 44.899,-100.285 100.285,-100.285 55.385,0 100.284,44.899 100.284,100.285 0,15.054 -3.317,29.333 -9.26,42.147 l -51.286,49.956 c -12.185,5.265 -25.621,8.182 -39.738,8.182 C 44.899,100.285 0,55.386 0,0"
             style="fill:#32353a;fill-opacity:1;fill-rule:nonzero;stroke:none"
             id="path66" />
        </g>
        <g
           id="g68"
           transform="translate(749.9077,442.7536)">
          <path
             d="m 0,0 c 0,-36.772 29.809,-66.581 66.581,-66.581 36.771,0 66.58,29.809 66.58,66.581 0,36.772 -29.809,66.581 -66.58,66.581 C 29.809,66.581 0,36.772 0,0"
             style="fill:#020202;fill-opacity:1;fill-rule:nonzero;stroke:none"
             id="path70" />
        </g>
        <g
           id="g72"
           transform="translate(754.8702,442.7746)">
          <path
             d="m 0,0 c 0,-34.031 27.587,-61.618 61.618,-61.618 34.031,0 61.618,27.587 61.618,61.618 0,34.031 -27.587,61.618 -61.618,61.618 C 27.587,61.618 0,34.031 0,0"
             style="fill:#393e42;fill-opacity:1;fill-rule:nonzero;stroke:none"
             id="path74" />
        </g>
        <g
           id="g76"
           transform="translate(774.4789,442.7746)">
          <path
             d="m 0,0 c 0,-23.201 18.808,-42.009 42.009,-42.009 23.202,0 42.01,18.808 42.01,42.009 0,23.201 -18.808,42.009 -42.01,42.009 C 18.808,42.009 0,23.201 0,0"
             style="fill:#32353a;fill-opacity:1;fill-rule:nonzero;stroke:none"
             id="path78" />
        </g>
        <g
           id="g80"
           transform="translate(1015.0908,665.5511)">
          <path
             d="m 0,0 c 0,-18.329 -14.858,-33.187 -33.187,-33.187 -18.329,0 -33.187,14.858 -33.187,33.187 0,18.329 14.858,33.187 33.187,33.187 C -14.858,33.187 0,18.329 0,0"
             style="fill:#464a56;fill-opacity:1;fill-rule:nonzero;stroke:none"
             id="path82" />
        </g>
        <g
           id="g84"
           transform="translate(1094.4915,589.252)">
          <path
             d="m 0,0 c 0,-18.329 -14.858,-33.187 -33.187,-33.187 -18.329,0 -33.187,14.858 -33.187,33.187 0,18.329 14.858,33.187 33.187,33.187 C -14.858,33.187 0,18.329 0,0"
             style="fill:#464a56;fill-opacity:1;fill-rule:nonzero;stroke:none"
             id="path86" />
        </g>
        <g
           id="g88"
           transform="translate(1018.1923,509.3344)">
          <path
             d="m 0,0 c 0,-18.329 -14.858,-33.187 -33.187,-33.187 -18.329,0 -33.187,14.858 -33.187,33.187 0,18.329 14.858,33.187 33.187,33.187 C -14.858,33.187 0,18.329 0,0"
             style="fill:#464a56;fill-opacity:1;fill-rule:nonzero;stroke:none"
             id="path90" />
        </g>
        <g
           id="g92"
           transform="translate(938.1713,589.252)">
          <path
             d="m 0,0 c 0,-18.329 -14.858,-33.187 -33.187,-33.187 -18.329,0 -33.187,14.858 -33.187,33.187 0,18.329 14.858,33.187 33.187,33.187 C -14.858,33.187 0,18.329 0,0"
             style="fill:#464a56;fill-opacity:1;fill-rule:nonzero;stroke:none"
             id="path94" />
        </g>
        <g
           id="g96"
           transform="translate(964.347,654)">
          <path
             d="M 0,0 H 34.542 L 17.532,30.354 Z M 40.893,-4 H -6.448 l 24.029,41.602 z"
             style="fill:#7dffbb;fill-opacity:1;fill-rule:nonzero;stroke:none"
             id="path98" />
        </g>
        <g
           id="g100"
           transform="translate(1083.0155,589.252)">
          <path
             d="m 0,0 c 0,-11.991 -9.72,-21.711 -21.711,-21.711 -11.991,0 -21.711,9.72 -21.711,21.711 0,11.991 9.72,21.711 21.711,21.711 C -9.72,21.711 0,11.991 0,0 Z"
             style="fill:none;stroke:#ffa14d;stroke-width:3;stroke-linecap:butt;stroke-linejoin:miter;stroke-miterlimit:10;stroke-dasharray:none;stroke-opacity:1"
             id="path102" />
        </g>
        <g
           id="g104"
           transform="translate(1004.6205,526.2146)">
          <path
             d="M 0,0 -2.632,2.632 -19.305,-14.042 -35.978,2.632 -38.61,0 l 16.674,-16.673 -16.674,-16.674 2.632,-2.631 16.673,16.673 16.673,-16.673 2.632,2.631 -16.673,16.674 z"
             style="fill:#1a89d3;fill-opacity:1;fill-rule:nonzero;stroke:none"
             id="path106" />
        </g>
        <path
           d="m 888,572 h 34 v 34 h -34 z m 37,-4 h -41 v 41 h 41 z"
           style="fill:#ff92e0;fill-opacity:1;fill-rule:nonzero;stroke:none"
           id="path108" />
        <g
           id="g110"
           transform="translate(292.0141,672.6847)">
          <path
             d="m 0,0 h 34.098 c 6.289,0 11.388,-5.098 11.388,-11.388 v -29.799 c 0,-3.02 -1.2,-5.916 -3.336,-8.052 L 25.624,-65.766 c -4.448,-4.447 -11.658,-4.447 -16.105,0 l -17.072,17.073 c -2.088,2.088 -3.283,4.905 -3.334,7.858 l -0.499,29.253 C -11.495,-5.218 -6.365,0 0,0"
             style="fill:#4f535e;fill-opacity:1;fill-rule:nonzero;stroke:none"
             id="path112" />
        </g>
        <g
           id="g114"
           transform="translate(393.239,604.2278)">
          <path
             d="m 0,0 v -34.098 c 0,-6.289 -5.098,-11.388 -11.388,-11.388 h -29.799 c -3.02,0 -5.916,1.2 -8.052,3.336 l -16.527,16.526 c -4.447,4.448 -4.447,11.658 0,16.105 l 17.073,17.072 c 2.088,2.088 4.905,3.283 7.858,3.334 l 29.253,0.499 C -5.218,11.495 0,6.365 0,0"
             style="fill:#4f535e;fill-opacity:1;fill-rule:nonzero;stroke:none"
             id="path116" />
        </g>
        <g
           id="g118"
           transform="translate(224.5771,570.1299)">
          <path
             d="m 0,0 v 34.098 c 0,6.289 5.098,11.388 11.388,11.388 h 29.799 c 3.02,0 5.916,-1.2 8.052,-3.336 L 65.766,25.624 c 4.447,-4.448 4.447,-11.658 0,-16.105 L 48.693,-7.553 c -2.088,-2.088 -4.905,-3.283 -7.858,-3.334 L 11.582,-11.386 C 5.218,-11.495 0,-6.365 0,0"
             style="fill:#4f535e;fill-opacity:1;fill-rule:nonzero;stroke:none"
             id="path120" />
        </g>
        <g
           id="g122"
           transform="translate(326.1121,501.8517)">
          <path
             d="m 0,0 h -34.098 c -6.289,0 -11.388,5.098 -11.388,11.388 v 29.799 c 0,3.02 1.2,5.916 3.336,8.052 l 16.526,16.527 c 4.448,4.447 11.658,4.447 16.105,0 L 7.553,48.693 c 2.088,-2.088 3.283,-4.905 3.334,-7.858 L 11.386,11.582 C 11.495,5.218 6.365,0 0,0"
             style="fill:#4f535e;fill-opacity:1;fill-rule:nonzero;stroke:none"
             id="path124" />
        </g>
        <g
           id="g126"
           transform="translate(300.9607,681.3691)">
          <path
             d="m 0,0 h 20.971 c 2.541,0 3.813,3.071 2.016,4.867 L 12.502,15.353 c -1.114,1.113 -2.919,1.113 -4.032,0 L -2.016,4.867 C -3.812,3.071 -2.54,0 0,0"
             style="fill:#4f535e;fill-opacity:1;fill-rule:nonzero;stroke:none"
             id="path128" />
        </g>
        <g
           id="g130"
           transform="translate(216.2574,576.6931)">
          <path
             d="m 0,0 v 20.971 c 0,2.541 -3.071,3.813 -4.867,2.016 L -15.353,12.502 c -1.113,-1.114 -1.113,-2.919 0,-4.032 L -4.867,-2.016 C -3.071,-3.812 0,-2.54 0,0"
             style="fill:#4f535e;fill-opacity:1;fill-rule:nonzero;stroke:none"
             id="path132" />
        </g>
        <g
           id="g134"
           transform="translate(319.5488,491.9218)">
          <path
             d="m 0,0 h -20.971 c -2.541,0 -3.813,-3.071 -2.017,-4.867 l 10.486,-10.486 c 1.114,-1.113 2.919,-1.113 4.032,0 L 2.016,-4.867 C 3.812,-3.071 2.54,0 0,0"
             style="fill:#4f535e;fill-opacity:1;fill-rule:nonzero;stroke:none"
             id="path136" />
        </g>
        <g
           id="g138"
           transform="translate(406.6353,596.0215)">
          <path
             d="m 0,0 v -20.971 c 0,-2.541 3.071,-3.813 4.867,-2.016 l 10.486,10.485 c 1.113,1.114 1.113,2.919 0,4.032 L 4.867,2.016 C 3.071,3.812 0,2.54 0,0"
             style="fill:#4f535e;fill-opacity:1;fill-rule:nonzero;stroke:none"
             id="path140" />
        </g>
        <g
           id="g142"
           transform="translate(676.4827,434.5037)">
          <path
             d="m 0,0 c 0,-16.787 -13.609,-30.396 -30.396,-30.396 -16.787,0 -30.395,13.609 -30.395,30.396 0,16.787 13.608,30.396 30.395,30.396 C -13.609,30.396 0,16.787 0,0"
             style="fill:#030303;fill-opacity:1;fill-rule:nonzero;stroke:none"
             id="path144" />
        </g>
        <g
           id="g146"
           transform="translate(613.9288,511.9449)">
          <path
             d="m 0,0 c 0,-2.698 -2.187,-4.885 -4.885,-4.885 -2.698,0 -4.885,2.187 -4.885,4.885 0,2.698 2.187,4.885 4.885,4.885 C -2.187,4.885 0,2.698 0,0"
             style="fill:#030303;fill-opacity:1;fill-rule:nonzero;stroke:none"
             id="path148" />
        </g>
        <g
           id="g150"
           transform="translate(632.6934,511.9449)">
          <path
             d="m 0,0 c 0,-2.698 -2.187,-4.885 -4.885,-4.885 -2.698,0 -4.885,2.187 -4.885,4.885 0,2.698 2.187,4.885 4.885,4.885 C -2.187,4.885 0,2.698 0,0"
             style="fill:#030303;fill-opacity:1;fill-rule:nonzero;stroke:none"
             id="path152" />
        </g>
        <g
           id="g154"
           transform="translate(652.0784,511.9449)">
          <path
             d="m 0,0 c 0,-2.698 -2.187,-4.885 -4.885,-4.885 -2.698,0 -4.885,2.187 -4.885,4.885 0,2.698 2.187,4.885 4.885,4.885 C -2.187,4.885 0,2.698 0,0"
             style="fill:#030303;fill-opacity:1;fill-rule:nonzero;stroke:none"
             id="path156" />
        </g>
        <g
           id="g158"
           transform="translate(670.998,511.9449)">
          <path
             d="m 0,0 c 0,-2.698 -2.187,-4.885 -4.885,-4.885 -2.698,0 -4.885,2.187 -4.885,4.885 0,2.698 2.187,4.885 4.885,4.885 C -2.187,4.885 0,2.698 0,0"
             style="fill:#030303;fill-opacity:1;fill-rule:nonzero;stroke:none"
             id="path160" />
        </g>
        <g
           id="g162"
           transform="translate(689.9177,511.9449)">
          <path
             d="m 0,0 c 0,-2.698 -2.187,-4.885 -4.885,-4.885 -2.698,0 -4.885,2.187 -4.885,4.885 0,2.698 2.187,4.885 4.885,4.885 C -2.187,4.885 0,2.698 0,0"
             style="fill:#030303;fill-opacity:1;fill-rule:nonzero;stroke:none"
             id="path164" />
        </g>
        <g
           id="g166"
           transform="translate(622.9234,498.1428)">
          <path
             d="m 0,0 c 0,-2.698 -2.187,-4.885 -4.885,-4.885 -2.698,0 -4.885,2.187 -4.885,4.885 0,2.698 2.187,4.885 4.885,4.885 C -2.187,4.885 0,2.698 0,0"
             style="fill:#030303;fill-opacity:1;fill-rule:nonzero;stroke:none"
             id="path168" />
        </g>
        <g
           id="g170"
           transform="translate(642.4634,498.1428)">
          <path
             d="m 0,0 c 0,-2.698 -2.187,-4.885 -4.885,-4.885 -2.698,0 -4.885,2.187 -4.885,4.885 0,2.698 2.187,4.885 4.885,4.885 C -2.187,4.885 0,2.698 0,0"
             style="fill:#030303;fill-opacity:1;fill-rule:nonzero;stroke:none"
             id="path172" />
        </g>
        <g
           id="g174"
           transform="translate(661.8483,498.1428)">
          <path
             d="m 0,0 c 0,-2.698 -2.187,-4.885 -4.885,-4.885 -2.698,0 -4.885,2.187 -4.885,4.885 0,2.698 2.187,4.885 4.885,4.885 C -2.187,4.885 0,2.698 0,0"
             style="fill:#030303;fill-opacity:1;fill-rule:nonzero;stroke:none"
             id="path176" />
        </g>
        <g
           id="g178"
           transform="translate(681.3677,498.1428)">
          <path
             d="m 0,0 c 0,-2.698 -2.187,-4.885 -4.885,-4.885 -2.698,0 -4.885,2.187 -4.885,4.885 0,2.698 2.187,4.885 4.885,4.885 C -2.187,4.885 0,2.698 0,0"
             style="fill:#030303;fill-opacity:1;fill-rule:nonzero;stroke:none"
             id="path180" />
        </g>
        <g
           id="g182"
           transform="translate(632.6934,484.3408)">
          <path
             d="m 0,0 c 0,-2.698 -2.187,-4.885 -4.885,-4.885 -2.698,0 -4.885,2.187 -4.885,4.885 0,2.698 2.187,4.885 4.885,4.885 C -2.187,4.885 0,2.698 0,0"
             style="fill:#030303;fill-opacity:1;fill-rule:nonzero;stroke:none"
             id="path184" />
        </g>
        <g
           id="g186"
           transform="translate(652.0784,484.3408)">
          <path
             d="m 0,0 c 0,-2.698 -2.187,-4.885 -4.885,-4.885 -2.698,0 -4.885,2.187 -4.885,4.885 0,2.698 2.187,4.885 4.885,4.885 C -2.187,4.885 0,2.698 0,0"
             style="fill:#030303;fill-opacity:1;fill-rule:nonzero;stroke:none"
             id="path188" />
        </g>
        <g
           id="g190"
           transform="translate(671.6183,484.3408)">
          <path
             d="m 0,0 c 0,-2.698 -2.187,-4.885 -4.885,-4.885 -2.698,0 -4.885,2.187 -4.885,4.885 0,2.698 2.187,4.885 4.885,4.885 C -2.187,4.885 0,2.698 0,0"
             style="fill:#030303;fill-opacity:1;fill-rule:nonzero;stroke:none"
             id="path192" />
        </g>
        <g
           id="g194"
           transform="translate(810.4331,551.7228)">
          <path
             d="m 0,0 h -326.48 c -6.6,0 -12,5.4 -12,12 v 168.919 c 0,6.6 5.4,12 12,12 H 0 c 6.6,0 12,-5.4 12,-12 V 12 C 12,5.4 6.6,0 0,0"
             style="fill:#1a1b1f;fill-opacity:1;fill-rule:nonzero;stroke:none"
             id="path196" />
        </g>
        <g
           id="g198"
           transform="translate(875.3203,663.5867)">
          <path
             d="m 0,0 h -11.565 c -6.6,0 -12,5.4 -12,12 v 35.964 c 0,6.6 5.4,12 12,12 H 0 c 6.6,0 12,-5.4 12,-12 L 12,12 C 12,5.4 6.6,0 0,0"
             style="fill:#4f535f;fill-opacity:1;fill-rule:nonzero;stroke:none"
             id="path200" />
        </g>
        <g
           id="g202"
           transform="translate(440.4013,659.4811)">
          <path
             d="m 0,0 h -11.565 c -6.6,0 -12,5.4 -12,12 v 35.964 c 0,6.6 5.4,12 12,12 H 0 c 6.6,0 12,-5.4 12,-12 L 12,12 C 12,5.4 6.6,0 0,0"
             style="fill:#4f535f;fill-opacity:1;fill-rule:nonzero;stroke:none"
             id="path204" />
        </g>
      </g>
    </g>
  </g>
</svg>
